<svg xmlns="http://www.w3.org/2000/svg" width="600" height="600" viewBox="0 0 600 600">
  <g fill="none" stroke="#C8A96B" stroke-width="2" opacity="0.22">
    <defs>
      <pattern id="islamicPattern" width="120" height="120" patternUnits="userSpaceOnUse">
        <path d="M60 0 L75 35 L120 60 L85 75 L60 120 L45 85 L0 60 L35 45 Z"/>
        <path d="M0 0 L35 15 L60 60 L15 35 Z"/>
        <path d="M120 0 L85 15 L60 60 L105 35 Z"/>
        <path d="M0 120 L35 105 L60 60 L15 85 Z"/>
        <path d="M120 120 L85 105 L60 60 L105 85 Z"/>
        <circle cx="60" cy="60" r="22"/>
        <rect x="44.5" y="44.5" width="31" height="31" transform="rotate(45 60 60)"/>
      </pattern>
    </defs>
    <rect width="600" height="600" fill="url(#islamicPattern)"/>
  </g>
</svg>